{"glyphs":{":":{"x_min":0,"x_max":262,"ha":262,"o":"m 36 79 q 36 117 64 143 q 92 169 135 169 q 158 169 184 160 q 196 157 207 149 q 240 125 240 85 q 240 48 209 18 q 199 9 187 2 q 175 -4 160 -8 q 144 -11 126 -11 q 84 -11 60 13 q 36 37 36 79 z m 36 460 q 36 498 64 524 q 92 550 135 550 q 158 550 184 541 q 200 535 207 530 q 240 506 240 466 q 240 429 209 399 q 199 390 187 384 q 175 377 164 374 q 153 372 143 371 q 133 370 126 370 q 84 370 60 394 q 36 418 36 460 z"},"$":{"x_min":0,"x_max":582,"ha":582,"o":"m 229 725 l 229 791 l 390 791 l 390 713 l 412 712 l 433 711 q 450 711 463 710 q 476 708 529 700 l 529 668 l 529 635 q 529 566 535 495 l 410 497 l 405 526 l 404 529 l 397 554 q 388 585 370 599 q 351 613 315 613 q 300 613 280 610 l 261 606 q 240 599 228 583 q 215 567 215 547 q 215 533 224 517 q 233 501 250 490 q 267 480 312 464 l 346 451 q 398 431 425 417 q 492 383 519 346 q 546 309 552 242 q 553 235 553 229 q 553 222 553 216 q 553 206 552 198 q 552 190 548 165 q 534 100 493 56 q 452 12 393 -4 l 378 -8 l 378 -71 l 219 -71 l 219 -12 l 199 -9 l 185 -7 l 148 -2 l 95 5 l 58 9 l 55 68 l 52 126 l 50 183 l 48 239 l 166 237 l 166 220 q 175 121 281 121 q 307 121 327 130 q 347 138 358 152 q 368 167 368 184 q 368 197 358 214 q 347 231 327 243 q 307 255 267 266 q 161 296 110 334 q 60 371 39 432 q 32 451 30 470 q 29 488 29 527 q 35 587 64 632 q 94 676 138 700 q 181 725 229 725 z"},"?":{"x_min":0,"x_max":488,"ha":488,"o":"m 7 545 l 122 452 l 137 479 q 154 505 170 521 q 192 543 202 552 q 212 560 222 565 q 231 570 240 570 q 268 570 276 536 q 279 526 277 513 q 275 491 267 478 q 259 465 233 442 l 206 417 l 167 371 l 151 352 q 124 315 113 292 q 102 269 102 249 q 102 232 112 204 l 122 184 l 305 226 q 286 245 286 265 q 286 293 318 332 l 324 339 l 354 369 l 399 415 q 460 476 460 548 q 460 614 403 676 q 353 729 272 729 q 223 729 173 707 q 123 685 78 640 q 32 596 7 545 z m 112 78 q 112 117 140 143 q 168 169 212 169 q 235 169 261 160 l 283 148 q 316 125 316 84 q 316 47 286 17 q 265 -2 243 -7 q 221 -12 203 -12 q 161 -12 136 12 q 112 37 112 78 z"},"'":{"x_min":0,"x_max":216,"ha":216,"o":"m 34 474 l 56 720 l 182 720 l 160 474 z"},"a":{"x_min":0,"x_max":587,"ha":587,"o":"m 351 350 l 347 378 q 344 402 322 409 q 299 416 238 416 q 207 416 127 395 l 70 380 l 77 521 q 121 536 164 544 q 207 552 257 552 q 397 552 457 510 q 517 469 517 375 l 517 124 l 520 111 q 526 96 558 88 q 560 88 566 88 q 571 88 571 86 l 568 0 l 381 0 q 368 0 368 25 q 368 31 369 42 q 370 54 370 58 l 373 82 q 358 51 335 33 q 308 9 284 -2 q 260 -12 230 -12 q 202 -12 168 -5 q 51 17 30 137 q 27 155 27 174 q 27 199 33 223 q 52 294 101 324 q 150 354 255 354 z m 253 231 q 209 210 209 176 q 209 138 250 130 q 257 128 266 128 q 274 128 283 128 q 325 132 342 150 q 360 167 360 202 l 360 239 l 305 239 q 268 239 253 231 z"},"L":{"x_min":0,"x_max":556,"ha":556,"o":"m 7 0 l 11 86 l 19 87 q 45 92 54 102 q 62 111 66 139 l 66 149 l 66 573 l 65 585 q 61 627 19 633 l 7 634 l 11 720 l 309 720 l 306 634 l 301 633 l 286 632 q 262 628 254 616 q 245 604 245 570 l 246 203 q 246 151 256 138 q 266 125 306 125 l 324 125 l 334 125 q 377 125 396 140 q 415 155 427 201 l 433 221 l 434 228 l 556 227 l 538 127 q 536 116 529 72 q 522 27 519 0 z"},"3":{"x_min":0,"x_max":622,"ha":622,"o":"m 38 84 l 116 194 l 149 173 q 234 121 293 121 q 341 121 377 155 q 408 183 408 215 q 408 255 361 281 q 353 285 340 287 q 328 289 305 289 l 265 289 l 234 289 l 216 288 q 204 288 194 288 q 183 287 149 283 l 146 439 q 160 437 172 436 q 184 435 200 435 q 218 435 234 435 q 251 435 266 436 q 301 440 316 445 q 332 450 342 461 q 367 486 367 511 q 367 527 356 547 q 335 582 297 582 q 277 582 255 575 q 239 571 226 564 q 214 557 184 533 l 144 503 l 59 612 l 84 634 q 140 678 182 698 q 223 718 256 722 q 289 727 313 727 q 357 727 391 717 q 425 707 451 689 q 484 665 504 642 q 523 620 532 597 q 545 560 545 531 q 545 461 476 404 l 460 392 q 490 379 513 358 q 573 303 573 215 q 573 184 564 152 q 542 78 468 32 q 395 -13 284 -13 q 155 -13 62 63 z"},";":{"x_min":0,"x_max":265,"ha":265,"o":"m 118 -184 l 42 -127 q 68 -99 88 -72 q 108 -45 126 -12 q 114 -14 106 -13 q 75 -13 56 8 q 36 30 36 63 q 36 73 38 84 q 40 94 46 106 q 64 143 101 156 q 109 160 121 162 q 133 164 142 164 q 184 164 214 138 q 243 111 243 70 q 244 60 244 55 q 244 15 224 -30 q 201 -82 152 -146 z m 36 460 q 36 499 64 524 q 93 550 136 550 q 152 550 160 549 q 168 548 184 542 q 211 532 226 512 q 241 492 241 467 q 241 447 230 427 q 209 385 160 374 q 144 370 126 370 q 84 370 60 394 q 36 418 36 460 z"},"J":{"x_min":0,"x_max":307,"ha":307,"o":"m 7 634 l 11 720 l 300 720 l 297 634 q 271 634 255 614 q 239 593 239 553 l 244 89 q 244 -2 240 -35 q 235 -68 217 -109 q 176 -200 98 -251 l 46 -218 q 58 -193 61 -170 l 63 -136 l 64 -129 l 65 -117 l 65 -111 l 65 -77 l 64 570 l 64 579 l 63 598 q 63 633 24 633 l 11 634 z"},"V":{"x_min":0,"x_max":676,"ha":676,"o":"m -14 634 l -10 720 l 276 720 l 280 634 l 268 634 q 230 630 230 605 q 230 599 231 596 l 233 588 l 241 560 l 325 300 q 333 274 336 258 q 340 242 343 219 q 343 229 343 238 q 343 248 346 260 l 358 293 l 439 542 l 454 581 q 456 586 457 591 q 458 596 458 601 q 458 627 424 633 l 413 634 l 417 720 l 690 720 l 687 634 q 667 634 654 620 q 641 606 627 570 l 439 92 q 433 77 430 62 q 426 48 423 21 l 421 0 l 268 0 q 257 45 238 94 q 218 143 133 333 q 93 423 62 517 l 37 593 q 34 603 23 617 l 7 629 q -3 634 -14 634 z"},"\"":{"x_min":0,"x_max":396,"ha":396,"o":"m 56 720 l 182 720 l 160 474 l 34 474 z m 236 720 l 362 720 l 340 474 l 214 474 z"},"7":{"x_min":0,"x_max":621,"ha":621,"o":"m 42 509 l 49 723 l 497 723 l 574 619 q 444 281 242 -25 l 99 48 q 118 80 150 138 q 175 184 200 230 q 242 308 250 322 l 368 554 l 394 575 l 360 576 l 255 573 q 209 573 184 555 q 159 537 159 509 z"},"S":{"x_min":0,"x_max":582,"ha":582,"o":"m 529 700 l 529 668 l 529 635 q 529 566 535 495 l 410 497 l 405 526 l 404 529 l 397 554 q 388 585 370 599 q 351 613 315 613 q 300 613 280 610 l 261 606 q 240 599 228 583 q 215 567 215 547 q 215 533 224 517 q 233 501 250 490 q 267 480 312 464 l 346 451 q 398 431 425 417 q 492 383 519 346 q 546 309 552 242 q 553 235 553 229 q 553 222 553 216 q 553 206 552 198 q 552 190 548 165 q 527 66 454 28 q 380 -10 225 -10 l 185 -7 l 95 5 l 87 6 l 58 9 l 55 68 l 52 126 l 50 183 l 48 239 l 166 237 l 166 220 q 175 121 281 121 q 307 121 327 130 q 347 138 358 152 q 368 167 368 184 q 368 197 358 214 q 347 231 327 243 q 307 255 267 266 q 161 296 110 334 q 60 371 39 432 q 32 451 30 470 q 29 488 29 527 q 36 609 91 664 q 125 698 167 714 q 209 731 269 731 q 296 731 338 726 l 351 724 l 433 711 z"},"}":{"x_min":0,"x_max":354,"ha":354,"o":"m 34 -120 l 34 -45 l 47 -45 q 79 -45 91 -34 q 103 -23 103 6 l 103 270 q 103 297 119 320 q 135 343 161 354 l 188 360 l 161 366 q 103 391 103 450 l 103 714 q 103 742 90 754 q 78 765 47 765 l 34 765 l 34 840 l 160 840 q 205 840 230 816 q 254 791 254 747 l 254 432 q 254 401 272 380 q 291 360 320 360 q 291 360 272 340 q 254 319 254 288 l 254 -27 q 254 -70 229 -95 q 204 -120 160 -120 z"},"Z":{"x_min":0,"x_max":593,"ha":593,"o":"m 14 0 l 19 102 l 315 563 q 318 570 333 583 l 341 590 l 295 590 l 255 590 q 205 590 180 572 q 156 554 156 527 l 38 527 q 44 570 48 602 q 51 633 51 658 l 54 689 l 56 720 l 558 720 l 569 622 l 556 603 l 542 585 l 527 563 l 525 559 l 293 200 q 290 193 276 178 q 259 158 238 143 l 348 143 l 361 143 q 398 143 421 159 q 444 175 455 204 l 459 220 l 571 220 q 551 119 535 0 z"},"x":{"x_min":0,"x_max":612,"ha":612,"o":"m 0 0 l 4 86 q 23 86 34 93 q 45 100 62 122 l 182 270 l 73 419 q 40 462 4 462 l 7 538 l 305 538 l 301 452 l 291 453 q 275 452 266 440 q 257 428 262 417 l 273 396 l 308 332 l 361 403 l 371 417 q 376 423 373 434 q 370 447 352 452 l 342 452 l 346 538 l 601 538 l 598 452 l 584 448 q 555 435 540 415 l 430 283 l 559 124 q 571 109 584 100 q 597 91 612 86 l 608 0 l 335 0 l 338 86 l 350 86 q 374 90 374 105 q 374 110 369 122 l 355 142 l 303 212 l 244 132 l 237 122 l 235 120 q 232 114 232 109 q 232 95 253 89 l 270 86 l 266 0 z"},")":{"x_min":0,"x_max":341,"ha":341,"o":"m 7 777 l 100 777 q 136 739 172 689 q 305 495 305 306 q 305 115 171 -85 q 142 -130 103 -172 l 9 -172 q 31 -114 44 -67 q 76 42 92 132 q 108 221 108 304 q 108 464 40 683 z"},"&":{"x_min":0,"x_max":746,"ha":746,"o":"m 183 409 l 167 431 q 143 470 133 496 q 123 523 123 550 q 123 556 124 564 q 125 573 125 577 q 135 649 191 691 q 247 733 345 733 q 355 733 366 733 q 376 733 390 731 q 464 723 504 693 q 544 663 560 603 l 566 564 q 566 510 540 464 q 514 418 456 382 l 422 364 q 426 356 450 325 q 475 294 488 282 q 541 324 571 385 l 686 313 q 643 235 585 167 q 618 124 658 80 q 698 37 739 0 l 523 -1 q 499 38 470 65 l 446 50 q 389 16 340 2 q 290 -13 239 -13 q 148 -13 88 46 q 27 104 27 188 q 27 217 36 249 q 50 299 75 330 q 100 361 152 392 q 162 398 167 401 q 177 407 183 409 z m 263 281 q 233 262 219 233 q 211 218 211 199 q 211 176 224 158 q 236 139 257 132 q 266 129 276 127 q 287 125 293 125 q 305 125 314 128 q 323 130 332 135 l 377 162 q 360 180 346 196 q 332 212 318 232 q 305 253 300 262 q 294 272 284 293 q 273 289 263 281 z m 358 488 q 374 500 385 516 q 396 531 400 545 q 404 559 404 569 q 404 615 356 615 q 332 615 316 598 q 301 582 301 553 q 301 543 304 529 q 313 495 338 476 z"},"_":{"x_min":0,"x_max":428,"ha":428,"o":"m 34 -40 l 34 0 l 394 0 l 394 -40 z"},"v":{"x_min":0,"x_max":558,"ha":558,"o":"m -7 452 l -3 538 l 259 538 l 256 452 l 250 451 q 220 441 220 418 q 220 414 222 406 q 223 399 224 395 l 243 322 l 245 318 l 263 257 l 270 235 l 271 231 l 275 216 l 281 169 q 281 190 286 213 l 293 235 l 322 327 l 339 380 l 344 394 l 349 410 l 350 415 q 353 427 346 436 q 339 446 322 451 l 313 452 l 317 538 l 565 538 l 562 452 l 551 449 q 523 438 506 397 q 503 389 460 274 l 444 229 q 413 142 386 79 l 366 34 l 365 31 q 363 25 362 22 q 360 12 358 0 l 208 0 l 202 16 l 198 27 l 176 75 q 124 183 108 219 q 93 255 59 342 l 34 407 l 28 419 q 11 452 -7 452 z"},"O":{"x_min":0,"x_max":723,"ha":723,"o":"m 29 368 q 29 518 121 624 q 218 736 371 736 q 397 736 432 731 q 546 714 617 634 q 692 549 692 422 q 692 -12 349 -12 q 320 -12 287 -9 q 156 4 88 119 q 29 218 29 368 z m 327 147 q 348 141 367 141 q 429 141 463 206 q 497 272 497 405 q 497 488 458 534 q 420 580 360 580 q 295 580 260 528 q 225 475 225 365 q 225 264 250 212 q 276 161 327 147 z"},"(":{"x_min":0,"x_max":341,"ha":341,"o":"m 238 777 l 333 777 q 313 729 297 672 q 265 563 249 474 q 233 384 233 301 q 233 141 301 -78 l 334 -172 l 241 -172 q 205 -134 169 -84 q 36 111 36 299 q 36 487 170 690 q 199 735 238 777 z"},"C":{"x_min":0,"x_max":614,"ha":614,"o":"m 560 720 l 564 671 l 567 621 l 571 563 l 576 504 l 452 507 l 450 519 q 430 597 366 597 q 345 597 323 590 q 274 574 248 516 q 222 459 222 350 q 222 320 224 306 q 225 292 232 266 q 263 138 354 138 q 392 138 436 162 q 480 187 509 211 l 528 228 l 614 105 l 587 82 q 529 38 484 16 q 440 -5 403 -10 q 366 -14 332 -14 q 187 -14 108 84 q 29 183 29 377 q 29 565 121 650 q 213 734 403 734 l 446 730 l 479 726 l 513 722 z"},"W":{"x_min":0,"x_max":947,"ha":947,"o":"m -7 634 l -3 720 l 285 720 l 281 634 l 276 633 q 243 628 236 618 q 228 609 228 576 l 235 538 l 266 367 q 268 356 270 338 q 273 320 277 280 l 279 250 l 288 322 l 294 359 l 295 367 l 349 618 q 354 639 356 654 q 359 669 359 689 l 361 720 l 567 720 l 573 673 l 582 639 l 650 385 q 652 378 654 356 q 657 335 661 296 l 664 261 q 664 281 668 304 q 673 326 675 339 l 685 381 l 718 546 l 720 559 q 724 583 724 599 q 724 619 710 628 q 696 636 684 634 l 688 720 l 954 720 l 951 634 q 919 634 904 595 q 889 556 839 351 q 828 305 814 256 q 800 207 772 118 l 764 90 l 761 83 q 757 66 754 44 q 751 21 751 0 l 586 0 q 586 41 569 100 l 496 359 l 480 413 q 474 434 471 450 q 468 466 468 493 l 458 414 l 447 354 l 395 102 l 385 52 l 380 -3 l 193 0 l 183 54 l 180 67 l 167 113 l 139 210 q 118 288 90 395 q 61 502 51 548 q 41 595 36 606 q 32 617 17 625 q 11 629 6 631 q 0 633 -7 634 z"},"A":{"x_min":0,"x_max":681,"ha":681,"o":"m -16 0 l -12 86 q -12 90 -4 90 q 6 90 8 91 q 19 96 28 106 q 36 116 43 138 l 244 678 q 246 685 249 696 q 252 708 254 720 l 430 720 q 438 720 438 705 q 438 683 439 680 l 639 121 q 647 96 681 88 q 687 87 693 86 l 689 -2 l 410 -2 l 414 86 q 422 87 424 87 q 463 94 455 123 l 433 191 l 222 191 l 206 144 q 200 127 200 116 q 200 93 239 87 l 246 86 l 244 0 z m 403 318 l 342 489 l 331 530 q 329 510 328 503 q 326 496 322 488 l 261 318 z"},"f":{"x_min":0,"x_max":319,"ha":319,"o":"m 0 431 l 4 538 l 70 538 l 70 624 q 70 650 79 677 q 93 713 120 739 q 169 785 267 785 q 300 785 333 770 l 330 634 l 319 638 l 291 646 q 284 647 278 647 q 273 647 271 647 q 220 647 220 590 l 220 538 l 328 538 l 324 431 l 231 431 l 231 162 l 232 138 q 232 113 244 102 q 255 91 286 87 l 295 86 l 292 0 l 11 0 l 14 86 q 32 88 42 96 q 53 103 59 115 q 65 127 69 153 l 70 169 l 70 431 z"},"Q":{"x_min":0,"x_max":723,"ha":723,"o":"m 557 39 l 567 24 q 584 -2 612 -20 q 641 -37 672 -45 l 473 -90 q 446 -51 412 -21 l 407 -17 l 402 -14 q 378 -18 346 -18 q 339 -18 330 -17 q 322 -16 317 -16 q 181 -2 105 98 q 29 198 29 368 q 29 543 116 640 q 203 737 355 737 q 391 737 432 731 q 546 714 617 634 q 692 549 692 422 q 692 263 670 195 q 644 114 557 39 z m 327 147 q 348 141 367 141 q 429 141 463 206 q 497 272 497 405 q 497 488 458 534 q 420 580 360 580 q 295 580 260 528 q 225 475 225 365 q 225 264 250 212 q 276 161 327 147 z"},"w":{"x_min":0,"x_max":882,"ha":882,"o":"m -7 452 l -3 538 l 259 538 l 256 452 l 249 450 q 218 440 218 411 q 219 402 219 397 l 226 362 l 247 257 l 255 220 q 259 205 259 172 q 259 197 264 219 l 266 225 l 277 264 l 284 287 l 330 444 l 336 468 l 343 495 l 347 516 l 352 538 l 531 538 l 542 487 l 552 455 q 569 397 581 358 q 593 318 600 298 l 611 266 l 615 253 l 625 217 l 633 174 q 633 185 633 193 q 633 201 637 220 l 645 262 l 662 344 l 672 396 q 674 405 674 418 q 674 436 664 444 q 654 452 641 452 l 645 538 l 889 538 l 886 452 q 866 456 853 431 l 843 412 q 828 376 811 309 q 788 220 756 69 l 748 36 q 746 26 746 16 q 746 6 747 0 l 545 0 l 538 40 l 536 46 l 526 76 l 456 292 l 448 330 l 443 383 l 440 361 q 436 334 433 321 q 430 308 426 296 l 354 84 l 342 56 q 332 34 332 0 l 177 0 q 175 10 173 20 q 172 23 166 38 l 157 60 q 145 88 131 128 q 113 178 95 238 l 53 374 l 48 391 q 40 420 30 433 q 20 446 1 451 z"},"-":{"x_min":0,"x_max":411,"ha":411,"o":"m 22 250 q 60 326 60 404 l 389 404 q 360 333 349 250 l 271 254 q 229 254 130 252 q 30 250 22 250 z"},"E":{"x_min":0,"x_max":591,"ha":591,"o":"m 7 0 l 11 86 q 21 86 26 88 q 45 93 54 108 q 63 122 63 154 l 64 547 l 64 563 q 61 588 56 602 q 50 616 38 625 q 26 634 7 634 l 11 720 l 530 720 l 537 640 q 543 584 555 524 l 442 524 l 436 548 l 433 556 l 430 563 q 422 581 411 586 q 400 590 363 590 l 305 590 q 285 590 276 586 q 267 582 256 566 q 244 551 244 523 l 244 439 l 495 439 l 489 302 l 244 302 l 244 193 q 244 152 254 140 q 264 128 304 121 l 319 120 l 356 120 q 403 120 418 132 q 434 145 448 195 l 455 221 l 569 221 q 553 142 548 111 q 539 52 539 0 z"},"s":{"x_min":0,"x_max":487,"ha":487,"o":"m 431 535 l 432 498 l 434 462 l 443 357 l 328 357 l 324 375 q 316 405 304 416 q 293 428 268 428 q 259 429 255 429 q 237 429 227 421 q 210 407 210 392 q 210 376 226 365 l 244 356 l 267 346 l 275 343 l 288 339 l 326 327 l 338 323 q 459 273 459 171 q 459 164 459 158 q 457 149 457 145 q 447 69 397 30 q 347 -10 255 -10 q 244 -10 238 -10 q 231 -10 222 -9 q 214 -8 209 -8 l 180 -5 q 118 3 98 5 q 77 7 40 7 l 39 51 l 37 96 l 35 149 l 33 202 l 149 197 l 150 187 q 157 103 221 103 q 238 103 256 106 q 273 109 284 120 q 294 130 294 148 q 294 163 286 170 q 277 178 250 188 l 178 213 q 153 221 139 226 q 125 232 116 237 q 29 286 29 372 q 29 385 30 392 q 35 454 81 501 q 111 532 150 542 q 190 551 272 551 l 300 549 l 366 542 l 387 539 z"},"l":{"x_min":0,"x_max":289,"ha":289,"o":"m 7 0 l 11 86 l 20 88 q 45 95 55 108 q 65 121 65 146 l 65 629 l 64 642 q 60 665 51 674 q 42 682 17 687 l 7 688 l 11 756 l 120 775 l 230 775 l 224 739 l 225 679 l 225 164 q 225 126 232 112 q 239 98 264 90 l 282 86 l 278 0 z"},"8":{"x_min":0,"x_max":621,"ha":621,"o":"m 147 371 l 124 390 q 58 450 58 527 q 58 547 63 575 q 78 651 144 695 q 211 739 324 739 q 367 739 404 730 q 441 722 466 707 q 509 683 533 652 q 557 621 562 588 q 568 554 568 534 q 568 455 501 391 l 482 375 l 510 354 q 588 289 588 208 q 588 176 576 138 q 550 60 497 24 q 444 -13 345 -13 l 287 -14 q 169 -14 97 47 q 29 104 29 190 q 29 219 40 254 q 55 298 80 326 q 106 355 147 371 z m 269 289 q 210 261 210 214 q 210 208 212 193 q 215 178 224 163 q 246 124 298 120 q 364 120 385 161 q 394 179 394 194 q 394 215 376 236 q 358 258 314 290 l 297 302 z m 388 499 q 393 512 393 525 q 394 533 394 537 q 394 607 322 607 q 307 607 289 602 q 250 587 250 546 q 250 532 256 517 q 263 502 276 487 q 283 478 307 461 q 324 448 335 442 q 372 459 388 499 z"},"\\":{"x_min":0,"x_max":320,"ha":320,"o":"m 34 720 l 160 720 l 286 0 l 160 0 z"},"e":{"x_min":0,"x_max":549,"ha":549,"o":"m 523 234 l 195 234 l 197 218 q 216 129 295 129 q 336 129 384 159 q 392 164 400 170 q 414 180 422 187 l 511 97 l 486 73 q 448 40 410 20 q 372 1 338 -4 q 304 -9 294 -10 q 283 -10 276 -10 q 163 -10 95 60 q 27 130 27 253 q 27 282 30 309 q 33 336 41 368 q 59 443 108 489 q 156 535 231 547 q 267 553 299 553 q 408 553 469 486 q 530 419 530 294 q 530 265 527 251 z m 373 337 l 373 348 q 367 428 288 428 q 275 428 260 425 q 206 417 193 350 l 192 337 z"},"b":{"x_min":0,"x_max":623,"ha":623,"o":"m 7 688 l 11 756 l 118 775 l 233 775 l 230 752 l 228 725 l 225 665 l 225 446 l 269 483 l 305 509 q 355 543 410 543 q 467 543 513 506 q 559 469 579 403 q 585 385 590 360 q 594 336 594 314 q 594 166 526 78 q 457 -10 346 -10 q 244 -10 181 50 q 162 21 136 0 l 54 0 q 61 44 63 80 q 65 115 65 191 l 65 628 q 65 637 65 641 q 65 665 59 673 q 53 681 26 685 z m 230 238 q 230 215 246 183 l 257 162 q 283 123 324 123 q 368 123 403 171 q 414 189 420 206 q 425 224 425 259 q 425 279 425 287 q 425 321 421 334 q 404 384 362 384 q 348 384 334 380 q 321 375 301 364 q 265 343 239 305 q 235 299 233 297 q 229 292 229 289 z"},"%":{"x_min":0,"x_max":976,"ha":976,"o":"m 24 550 q 42 695 187 715 q 195 716 202 716 q 210 717 220 717 q 228 717 236 717 q 248 715 253 715 q 401 696 417 550 q 419 543 419 536 q 419 528 419 521 q 419 513 419 510 q 419 504 417 492 q 399 345 253 325 q 245 323 236 323 q 226 323 221 323 q 213 323 209 323 q 202 323 188 325 q 114 335 74 376 q 34 417 24 493 z m 270 -10 l 587 733 l 719 733 l 396 -10 z m 559 219 q 577 364 722 384 q 730 385 738 386 q 745 386 755 386 q 763 386 771 386 q 783 384 788 384 q 936 365 952 219 q 954 201 954 192 q 954 182 954 173 q 952 164 952 161 q 934 14 788 -5 q 780 -7 770 -7 q 760 -7 755 -7 q 747 -7 743 -7 q 737 -7 723 -5 q 578 14 559 161 q 559 171 558 182 q 558 192 558 202 q 558 215 559 219 z m 223 437 q 260 437 266 486 l 267 497 l 267 543 q 267 576 247 593 q 233 604 218 604 q 197 604 184 585 q 181 580 178 572 q 176 564 175 555 l 175 497 q 174 494 174 487 q 174 467 188 452 q 202 437 223 437 z m 758 106 q 795 106 801 154 l 802 166 l 802 213 q 802 246 782 262 q 776 268 770 269 q 762 273 752 273 q 721 273 713 239 l 710 213 l 710 166 q 710 134 722 120 q 734 106 758 106 z"},"m":{"x_min":0,"x_max":925,"ha":925,"o":"m 14 0 l 18 86 l 27 88 q 52 93 60 102 q 67 110 71 139 l 72 146 l 70 384 l 70 410 l 69 416 q 67 433 56 442 q 46 450 21 452 l 14 452 l 18 520 l 136 538 l 216 538 l 218 528 l 221 514 l 223 491 l 224 470 l 245 485 q 293 518 313 529 q 333 540 362 547 q 395 557 417 557 q 427 556 432 556 q 466 556 486 546 q 505 537 524 516 q 533 507 535 501 l 547 477 q 563 497 586 514 q 631 547 666 552 q 701 556 719 556 q 753 556 777 548 q 801 539 821 521 q 846 498 854 472 q 862 445 862 382 l 862 158 q 862 121 878 102 q 893 84 918 86 l 913 0 l 646 0 l 650 86 l 659 87 q 686 91 695 104 q 704 116 704 152 l 704 342 l 704 366 l 704 370 l 701 380 q 692 401 672 401 q 651 401 612 378 l 591 365 q 564 346 548 326 l 548 148 q 548 118 558 105 q 568 92 594 87 l 605 86 l 602 0 l 328 0 l 332 86 l 341 87 q 388 87 388 153 l 388 310 l 388 341 q 388 365 374 380 q 359 394 337 391 q 316 388 299 375 l 280 360 l 269 352 l 246 334 l 239 328 l 231 321 l 231 165 l 231 136 l 231 130 q 234 103 270 91 l 282 87 l 288 86 l 284 0 z"},",":{"x_min":0,"x_max":257,"ha":257,"o":"m 107 -184 l 31 -127 q 57 -99 77 -72 q 97 -45 115 -12 q 103 -14 95 -13 q 64 -13 44 8 q 25 30 25 63 q 25 73 27 84 q 29 94 35 106 q 53 143 90 156 q 98 160 110 162 q 122 164 131 164 q 173 164 202 138 q 232 111 232 70 q 233 60 233 55 q 233 15 213 -30 q 190 -82 141 -146 q 130 -160 125 -166 q 120 -172 107 -184 z"},"n":{"x_min":0,"x_max":634,"ha":634,"o":"m 14 0 l 18 86 l 23 87 l 35 91 q 58 97 65 110 q 72 124 72 164 l 72 396 q 72 428 64 438 q 57 447 27 451 l 14 452 l 18 520 l 128 539 l 213 539 q 218 523 220 505 l 220 500 l 220 479 l 220 430 l 230 441 l 261 470 q 290 497 309 510 q 328 524 348 533 q 394 553 436 553 q 509 553 550 487 q 562 468 566 446 q 571 425 571 387 l 571 157 l 571 133 l 571 129 q 574 96 619 88 l 627 86 l 622 0 l 350 0 l 352 86 l 360 87 q 388 92 397 102 q 406 111 409 139 l 410 153 l 410 332 l 410 345 q 407 381 377 381 q 364 381 350 374 q 325 362 304 344 q 279 322 246 281 l 233 263 l 233 151 q 233 113 242 104 q 250 94 288 87 l 295 86 l 291 0 z"},"h":{"x_min":0,"x_max":628,"ha":628,"o":"m 7 0 l 11 86 l 19 88 q 43 95 54 112 q 64 129 64 164 l 64 632 l 64 645 l 63 651 q 63 682 19 688 l 7 688 l 11 756 l 123 775 l 226 775 l 225 744 l 225 708 l 224 685 l 224 673 l 224 439 l 236 452 q 286 504 320 524 q 353 545 392 550 q 400 550 410 551 q 419 552 423 552 q 565 552 565 387 l 565 157 l 565 144 q 567 120 574 110 q 581 99 601 91 l 621 86 l 618 0 l 349 0 l 353 86 q 372 86 388 101 q 404 116 404 153 l 404 332 l 404 346 q 401 382 368 382 q 361 382 350 379 q 340 376 331 371 q 322 366 302 351 q 283 336 268 320 q 262 313 238 284 l 224 266 l 225 161 q 225 119 232 107 q 239 95 269 88 l 277 86 l 273 0 z"},"z":{"x_min":0,"x_max":519,"ha":519,"o":"m 18 107 l 30 121 l 41 135 l 52 148 l 239 357 l 260 382 q 268 391 287 404 l 219 406 q 187 406 174 396 q 160 387 156 359 l 153 343 l 153 337 l 29 337 q 36 387 44 442 q 52 498 52 541 q 116 541 247 540 q 378 539 444 539 l 501 444 l 471 408 l 452 382 l 270 162 l 256 145 q 250 138 232 132 l 313 131 q 361 131 375 172 l 379 189 l 382 198 l 386 213 l 500 213 q 487 156 477 101 q 467 46 461 -6 l 430 0 l 413 0 l 60 0 z"},"B":{"x_min":0,"x_max":638,"ha":638,"o":"m 7 0 l 11 86 l 25 88 q 48 93 56 108 q 64 123 64 165 l 64 548 q 64 594 54 612 q 45 629 19 633 l 7 634 l 11 720 q 113 720 192 721 q 271 722 347 723 q 411 723 452 710 q 492 696 523 661 q 554 626 563 583 q 569 554 569 530 q 569 476 539 437 q 513 405 479 392 q 489 389 496 386 q 504 383 513 378 q 562 353 590 308 q 617 264 617 210 q 617 196 614 180 q 611 164 610 158 q 598 108 562 69 q 518 21 454 10 q 389 -1 169 -1 z m 318 119 l 345 121 q 416 132 426 193 q 429 207 429 219 q 429 306 302 306 l 271 304 l 257 303 l 244 301 l 244 194 q 244 160 262 140 q 279 119 318 119 z m 244 452 q 244 439 265 439 l 293 439 q 354 439 380 460 q 405 482 405 531 q 405 564 382 584 q 358 603 314 603 q 272 603 258 592 q 243 580 243 549 z"},"K":{"x_min":0,"x_max":634,"ha":634,"o":"m 7 0 l 11 86 l 24 88 q 45 93 54 104 q 62 114 65 139 l 66 151 l 64 565 q 64 604 54 616 q 45 629 15 633 l 7 634 l 11 720 l 288 720 l 284 634 q 268 636 256 624 q 245 612 245 586 l 244 578 l 244 441 l 365 582 l 381 600 l 385 610 q 385 633 350 633 l 345 633 l 349 720 l 608 720 l 605 634 l 394 425 l 584 122 q 606 86 648 86 l 644 0 l 448 0 l 279 292 l 244 251 l 244 165 l 245 151 q 249 114 256 102 q 264 91 288 87 l 295 86 l 291 0 z"},"R":{"x_min":0,"x_max":636,"ha":636,"o":"m 5 0 l 9 86 l 16 86 q 40 86 50 102 q 59 119 59 162 l 63 561 l 62 575 q 62 606 53 616 q 44 627 15 633 l 5 634 l 9 719 q 45 719 118 718 q 191 717 240 717 l 347 722 l 430 722 q 502 722 552 664 q 602 606 602 526 q 602 486 587 445 q 556 358 471 333 l 584 126 q 595 106 609 98 q 618 93 629 90 l 641 86 l 638 0 l 449 0 q 445 12 441 24 q 437 37 432 45 l 429 50 l 302 283 l 242 280 l 243 160 q 243 119 251 106 q 259 93 289 87 l 297 86 l 293 0 z m 283 426 q 345 426 378 444 q 411 463 416 496 q 418 510 418 517 q 418 583 343 589 q 336 590 328 590 q 321 590 318 590 q 245 590 245 553 l 245 529 l 246 428 z"},"T":{"x_min":0,"x_max":627,"ha":627,"o":"m 0 524 l 10 637 l 13 678 l 15 720 l 161 717 q 240 717 396 718 q 551 719 627 719 l 625 674 l 622 630 l 620 577 l 618 525 l 502 523 l 502 535 l 498 558 q 486 596 451 596 l 402 596 l 402 160 l 402 140 l 403 134 l 405 124 q 409 111 418 102 q 427 93 442 88 l 462 86 l 459 0 l 165 0 l 169 86 l 180 88 q 221 96 221 143 l 222 595 l 186 595 q 166 595 148 582 q 131 568 123 541 l 121 531 l 119 524 z"},"P":{"x_min":0,"x_max":609,"ha":609,"o":"m 7 0 l 11 86 l 24 87 q 35 88 46 96 q 65 110 65 144 l 65 557 l 64 570 q 59 605 44 620 q 30 636 7 634 l 11 720 l 102 719 q 164 719 200 720 q 344 724 351 724 q 435 724 472 716 q 509 707 544 678 q 580 648 594 604 q 609 560 609 484 q 609 381 536 334 q 464 286 306 286 l 245 285 l 245 166 l 247 127 q 247 116 258 103 q 265 94 276 90 q 286 86 299 86 l 295 0 z m 284 430 q 354 430 383 449 q 412 468 412 514 q 412 565 377 583 q 365 590 331 590 l 302 590 l 295 590 q 268 585 257 574 q 246 563 246 540 l 245 430 z"},"t":{"x_min":0,"x_max":357,"ha":357,"o":"m 7 431 l 16 538 l 63 538 l 79 655 l 223 695 l 223 538 l 346 538 l 338 431 l 223 431 l 223 186 q 223 147 232 129 l 234 126 l 237 122 q 247 111 266 111 q 278 111 293 115 l 314 121 l 320 123 l 364 25 l 355 21 l 341 14 q 275 -16 214 -16 q 148 -16 106 18 q 65 53 65 107 q 64 119 64 128 q 63 137 63 143 q 63 151 63 155 l 63 431 z"},"M":{"x_min":0,"x_max":925,"ha":925,"o":"m -7 0 l -3 86 l 4 87 q 26 90 34 95 q 43 100 46 113 l 51 145 l 113 545 l 114 553 l 116 574 q 116 601 108 614 q 99 626 75 632 q 70 634 58 634 l 61 720 l 329 720 q 329 669 353 601 l 381 518 q 396 475 412 424 q 425 384 429 366 l 431 358 l 440 314 l 453 248 l 456 280 q 463 340 475 388 q 487 437 510 492 l 549 586 l 552 599 q 552 611 544 618 q 536 626 513 633 l 508 634 l 508 720 l 802 720 q 802 707 802 696 q 801 686 801 678 l 812 599 l 867 166 l 871 133 q 874 110 882 102 q 889 93 910 88 l 925 86 l 922 0 l 641 0 l 645 83 l 654 83 q 694 90 694 129 l 694 160 l 694 167 l 677 398 l 675 437 l 670 507 q 665 455 654 416 q 643 377 609 291 l 520 83 l 512 65 q 507 52 502 35 q 497 18 492 0 l 384 0 q 381 21 376 36 q 372 50 358 84 l 324 176 q 295 257 282 309 q 265 376 256 420 q 247 463 247 501 q 247 480 247 459 q 247 438 248 417 l 240 340 l 226 146 q 226 111 232 102 q 237 92 264 87 l 274 86 l 270 0 z"},"g":{"x_min":0,"x_max":577,"ha":577,"o":"m 70 -5 l 176 -69 l 175 -76 q 167 -132 241 -150 q 251 -151 260 -152 q 268 -153 283 -153 q 306 -153 326 -150 q 345 -146 360 -137 q 391 -118 391 -98 q 391 -85 376 -68 q 370 -61 361 -58 q 352 -54 336 -54 l 252 -51 l 237 -51 q 188 -51 164 -34 q 140 -18 130 20 q 125 34 125 36 q 125 45 125 48 q 125 77 157 128 l 168 144 l 141 154 q 30 206 30 326 q 30 354 38 389 q 57 468 114 510 q 172 551 267 551 q 291 551 318 548 q 367 534 416 521 q 424 521 428 522 l 554 548 l 554 437 l 513 418 q 541 376 541 323 q 541 313 539 300 q 537 287 534 273 q 516 208 462 170 q 407 132 311 122 l 280 121 l 276 113 q 272 104 276 97 q 280 90 290 90 l 322 89 l 378 89 q 419 89 446 78 q 473 67 499 39 q 539 -3 539 -64 q 539 -96 529 -130 q 512 -189 443 -224 q 374 -260 255 -260 q 235 -260 212 -258 q 190 -256 174 -254 q 102 -244 62 -204 q 23 -165 23 -112 q 23 -77 43 -42 q 47 -34 52 -24 q 58 -15 70 -5 z m 234 261 q 256 244 290 244 q 334 244 361 275 q 374 291 379 314 q 379 319 380 326 q 381 333 381 340 q 381 378 346 407 q 333 417 316 421 q 300 425 286 425 q 236 425 210 381 q 205 373 202 362 q 199 350 199 334 q 199 309 206 293 q 214 277 234 261 z"},"j":{"x_min":0,"x_max":271,"ha":271,"o":"m 7 520 l 114 538 l 232 538 q 226 515 226 500 l 226 8 q 226 -75 202 -129 q 178 -183 115 -239 l 92 -258 l 41 -214 l 49 -196 q 63 -163 63 -142 l 63 399 q 63 452 19 452 q 17 452 11 452 z m 30 610 q 24 621 24 638 q 24 651 28 666 q 33 681 42 697 q 57 722 82 735 q 107 748 148 748 q 173 748 186 746 q 245 736 245 686 q 245 658 225 621 q 205 584 143 575 q 134 574 124 574 q 114 573 109 573 q 49 573 30 610 z"},"i":{"x_min":0,"x_max":299,"ha":299,"o":"m 14 0 l 18 86 l 29 89 q 56 99 64 118 q 73 138 73 193 l 73 387 l 72 403 q 72 428 65 437 q 58 446 36 449 l 20 452 l 14 452 l 18 520 l 125 538 l 238 538 l 236 519 l 235 499 l 234 480 l 234 458 l 234 181 l 235 166 q 235 127 242 114 q 250 100 278 90 q 285 88 292 86 l 288 0 z m 39 610 q 33 621 33 638 q 33 651 38 666 q 42 681 51 697 q 66 722 91 735 q 116 748 157 748 q 166 748 174 748 q 183 748 195 746 q 254 736 254 686 q 254 658 234 621 q 215 584 153 575 q 143 573 134 573 q 124 573 119 573 q 88 573 68 582 q 49 592 39 610 z"},"y":{"x_min":0,"x_max":562,"ha":562,"o":"m -7 452 l -3 538 l 256 538 l 252 452 l 246 452 q 227 450 222 444 q 217 437 217 418 l 219 400 q 220 390 224 374 q 229 359 241 324 l 267 248 l 273 230 l 284 201 q 287 191 290 177 q 293 163 293 151 q 293 172 296 186 q 300 199 312 236 l 330 290 q 365 396 365 424 q 365 446 339 452 l 331 452 l 335 538 l 569 538 l 565 445 q 557 445 547 440 q 524 431 517 403 l 511 383 q 488 303 449 202 q 401 76 325 -94 l 255 -241 l 75 -242 l 116 -172 l 157 -101 l 209 -9 q 168 64 138 134 q 109 205 64 336 l 49 382 l 43 400 q 35 423 30 430 q 26 438 16 444 q 6 450 -7 452 z"},".":{"x_min":0,"x_max":254,"ha":254,"o":"m 25 79 q 25 118 52 144 q 80 169 123 169 q 147 169 173 160 q 185 157 196 149 q 229 125 229 85 q 229 48 198 18 q 188 9 176 2 q 164 -4 153 -6 q 142 -9 132 -10 q 122 -11 115 -11 q 73 -11 49 13 q 25 37 25 79 z"},"p":{"x_min":0,"x_max":631,"ha":631,"o":"m 7 452 l 11 520 l 119 538 l 215 537 l 217 514 q 217 500 217 492 q 217 483 217 474 q 215 462 215 457 l 241 483 q 285 523 314 536 q 342 550 384 550 q 471 550 524 504 q 576 458 596 356 q 602 321 602 285 q 602 276 602 268 q 600 256 600 250 q 592 176 568 124 q 543 73 504 41 q 437 -12 357 -12 q 344 -12 337 -11 q 262 -2 225 47 l 225 -99 q 225 -129 236 -140 q 247 -152 280 -156 l 288 -156 l 284 -240 l 116 -240 l 57 -244 l 61 -209 q 61 -180 62 -156 q 63 -133 64 -112 l 64 383 q 64 421 56 433 q 48 445 19 451 q 11 453 7 452 z m 356 127 l 381 139 q 410 158 420 186 q 431 215 431 278 q 431 309 426 332 q 409 393 354 393 q 320 393 282 365 q 263 352 242 327 l 227 306 l 227 265 q 227 194 252 158 q 276 121 320 121 q 336 121 356 127 z"},"X":{"x_min":0,"x_max":657,"ha":657,"o":"m 0 0 l 11 86 l 235 367 l 56 605 l 52 610 q 35 630 15 634 l 19 720 l 306 720 l 302 634 l 293 634 q 275 632 275 617 q 275 611 278 602 l 293 575 l 350 470 l 409 576 l 421 595 q 427 604 427 612 q 427 626 414 630 q 400 635 392 634 l 396 720 l 642 720 l 639 634 l 443 381 l 614 119 l 628 98 q 638 88 657 86 l 654 0 l 371 0 l 374 86 l 384 87 q 405 93 405 114 q 405 120 402 128 l 399 135 l 389 153 l 329 258 l 256 158 q 237 132 237 116 q 237 99 267 88 l 274 86 l 270 0 z"},"*":{"x_min":0,"x_max":478,"ha":478,"o":"m 22 500 q 36 535 47 575 q 58 615 65 654 q 133 600 204 569 l 196 601 q 185 645 178 668 q 171 691 158 729 l 198 725 q 220 725 230 725 q 246 725 255 725 q 273 725 291 726 q 309 727 328 730 l 307 692 q 281 634 275 573 q 345 606 398 664 q 407 622 422 580 q 438 538 456 501 l 418 506 q 403 508 373 509 q 343 510 328 510 q 308 510 298 510 q 355 459 421 419 q 384 400 349 374 q 323 355 316 349 q 304 339 285 320 l 267 391 q 263 408 258 423 q 254 438 245 463 q 223 426 212 390 q 201 355 201 317 q 136 370 65 403 q 127 459 194 508 q 113 508 22 500 z"},"Y":{"x_min":0,"x_max":599,"ha":599,"o":"m -14 627 l -13 720 l 282 720 l 277 624 l 271 622 q 242 613 242 595 q 242 584 251 561 l 288 467 l 299 443 q 306 431 313 402 l 328 443 l 343 473 l 386 567 l 389 578 q 390 582 390 585 q 390 590 390 592 q 390 624 362 627 l 351 626 l 354 720 l 613 720 l 610 634 q 595 634 586 627 q 578 620 567 598 l 402 258 l 402 162 l 402 150 q 405 113 410 105 q 416 97 443 88 l 450 86 l 447 0 l 170 0 l 173 86 l 182 88 q 206 93 214 102 q 221 110 221 134 l 222 259 l 35 588 l 26 602 q 10 627 -14 627 z"},"c":{"x_min":0,"x_max":520,"ha":520,"o":"m 483 537 q 483 504 486 439 q 489 374 489 342 l 370 344 l 371 350 l 372 364 q 372 393 356 410 q 341 428 314 428 q 296 428 278 421 q 243 409 226 380 q 206 346 206 283 l 206 248 q 206 188 232 157 q 258 126 306 126 q 338 126 381 143 q 404 153 428 170 l 498 68 q 471 43 437 24 q 407 8 376 -1 q 346 -10 314 -10 q 177 -10 103 59 q 29 128 29 268 q 29 404 96 478 q 164 551 287 551 l 329 552 q 374 552 451 542 z"},"!":{"x_min":0,"x_max":279,"ha":279,"o":"m 36 710 q 69 522 77 458 q 85 393 85 319 l 91 215 l 224 232 q 224 374 230 496 q 235 617 250 736 z m 53 79 q 53 118 80 144 q 108 169 151 169 q 175 169 201 160 q 213 157 224 149 q 257 125 257 85 q 257 48 226 18 q 216 9 204 2 q 192 -4 181 -6 q 170 -9 160 -10 q 150 -11 143 -11 q 101 -11 77 13 q 53 37 53 79 z"},"/":{"x_min":0,"x_max":551,"ha":551,"o":"m 7 -60 l 427 764 l 544 764 l 130 -60 z"},"[":{"x_min":0,"x_max":360,"ha":360,"o":"m 65 -166 l 65 774 l 353 774 l 353 698 l 237 698 l 237 -92 l 351 -92 l 351 -166 z"},"6":{"x_min":0,"x_max":621,"ha":621,"o":"m 349 732 l 506 675 q 386 576 296 455 q 325 468 355 468 q 369 468 392 465 q 477 455 528 398 q 578 342 578 254 q 578 210 565 164 q 521 9 362 -10 q 349 -12 332 -13 q 314 -14 300 -14 q 178 -14 110 54 q 42 122 42 244 q 42 281 50 329 q 63 406 116 487 q 174 575 284 678 q 298 691 314 705 q 329 719 349 732 z m 217 198 q 238 116 300 116 q 317 116 342 123 q 367 130 383 148 q 399 167 406 203 q 409 223 409 239 q 409 287 382 312 q 356 336 307 336 q 274 333 252 320 q 231 308 222 288 q 220 281 218 256 q 216 232 216 219 q 216 202 217 198 z"},"r":{"x_min":0,"x_max":395,"ha":395,"o":"m 14 0 l 18 86 l 22 87 l 36 91 q 58 96 64 106 q 71 117 71 151 l 71 166 l 71 389 q 71 453 25 453 l 14 452 l 18 520 l 123 538 l 211 538 l 213 514 l 215 488 l 217 456 l 217 452 l 213 382 l 219 397 l 224 410 l 241 448 q 270 511 294 528 q 318 545 370 545 l 401 543 l 409 542 l 403 393 l 397 394 l 391 395 l 385 395 l 373 396 q 352 396 340 387 q 328 378 293 335 q 284 325 276 314 q 268 303 256 285 l 234 252 l 236 153 l 235 127 q 235 108 246 100 q 256 91 285 87 l 291 86 l 288 0 z"},"2":{"x_min":0,"x_max":622,"ha":622,"o":"m 33 549 q 39 572 51 594 q 86 664 142 700 q 199 737 280 737 q 383 737 448 700 q 514 664 543 592 q 551 570 556 548 q 560 525 560 503 q 560 466 548 434 q 536 403 514 382 l 262 146 l 346 146 l 397 146 q 417 150 428 165 q 440 180 453 218 l 456 230 l 573 229 l 562 176 q 554 126 548 82 q 543 38 543 0 l 41 0 l 40 126 l 310 418 l 334 447 l 338 452 l 354 469 q 374 489 374 512 q 374 534 352 559 q 330 584 290 584 q 260 584 244 574 q 229 563 206 527 l 202 521 l 189 502 l 185 495 l 175 479 z"},"{":{"x_min":0,"x_max":354,"ha":354,"o":"m 34 360 q 63 360 82 380 q 100 401 100 432 l 100 747 q 100 790 125 815 q 150 840 194 840 l 320 840 l 320 765 l 307 765 q 275 765 263 754 q 251 743 251 714 l 251 450 q 251 423 235 400 q 219 377 193 366 l 166 360 l 193 354 q 251 329 251 270 l 251 6 q 251 -22 264 -34 q 276 -45 307 -45 l 320 -45 l 320 -120 l 194 -120 q 149 -120 124 -96 q 100 -71 100 -27 l 100 288 q 100 319 82 340 q 63 360 34 360 z"},"9":{"x_min":0,"x_max":621,"ha":621,"o":"m 263 -14 l 106 43 q 224 138 316 263 q 287 250 257 250 q 243 250 220 253 q 136 263 85 320 q 34 378 34 466 q 34 509 47 554 q 91 709 250 728 q 279 732 313 732 q 435 732 503 664 q 571 596 571 474 q 571 437 563 389 q 548 310 497 231 q 440 144 328 40 q 324 36 290 9 q 280 1 263 -14 z m 395 520 q 376 602 312 602 q 295 602 274 596 q 218 582 207 515 q 204 495 204 479 q 204 431 230 406 q 257 382 305 382 q 338 385 360 398 q 381 410 391 430 q 394 438 395 467 q 396 496 396 498 q 396 516 395 520 z"}," ":{"x_min":0,"x_max":290,"ha":290,"o":""},"I":{"x_min":0,"x_max":310,"ha":310,"o":"m 7 0 l 11 86 l 18 88 q 45 96 53 104 q 61 113 64 139 l 65 153 l 65 565 q 65 597 56 612 q 47 627 23 632 l 7 634 l 11 720 l 303 720 l 300 634 q 289 634 284 632 q 245 623 245 566 l 245 164 l 245 149 q 245 118 253 106 q 261 94 285 88 l 301 86 l 298 0 z"},"H":{"x_min":0,"x_max":707,"ha":707,"o":"m 7 0 l 11 86 l 20 87 q 46 92 54 104 q 63 115 63 147 l 65 565 l 66 581 q 66 604 57 616 q 48 627 23 632 l 7 634 l 11 720 l 301 720 l 297 634 q 287 634 276 632 q 264 629 254 613 q 248 606 246 593 l 245 590 l 245 562 l 245 448 l 462 448 l 462 574 l 462 597 l 460 609 q 455 621 446 627 q 436 633 418 633 l 407 634 l 410 720 l 700 720 l 696 634 q 678 631 666 620 q 653 609 648 598 q 643 588 643 570 l 643 155 l 643 137 l 644 131 q 644 103 681 89 l 698 86 l 696 0 l 407 0 l 409 86 l 422 87 q 462 95 462 148 l 462 311 l 245 311 l 245 150 l 246 125 q 246 96 285 88 l 300 86 l 296 0 z"},"4":{"x_min":0,"x_max":621,"ha":621,"o":"m 3 301 l 289 639 l 321 681 l 355 729 l 506 729 l 506 310 l 583 310 l 583 172 l 506 172 l 506 0 l 326 0 l 326 173 l 55 173 z m 337 310 l 337 488 l 326 471 l 291 424 l 192 310 z"},"~":{"x_min":0,"x_max":506,"ha":506,"o":"m 34 271 l 35 296 q 42 374 74 414 q 107 453 160 453 q 175 453 188 450 q 202 447 223 440 l 306 408 l 329 400 q 338 397 345 397 q 364 397 374 426 q 378 438 378 445 l 379 454 l 472 454 l 471 429 q 457 273 347 273 q 320 273 283 286 l 200 317 l 177 325 q 169 329 160 329 q 143 329 132 299 q 128 289 128 281 l 127 271 z"},"D":{"x_min":0,"x_max":675,"ha":675,"o":"m 7 0 l 11 86 l 22 87 q 46 92 56 104 q 65 117 65 146 l 65 568 l 64 577 q 60 606 50 618 q 41 629 16 633 l 7 634 l 11 720 q 56 720 133 719 q 210 718 273 718 l 342 722 q 363 722 382 722 q 402 721 425 716 q 520 696 574 628 q 628 559 642 434 q 643 425 644 404 q 645 382 645 350 q 645 331 645 322 q 645 155 564 77 q 483 -1 320 -1 l 159 5 q 140 5 82 2 q 25 0 7 0 z m 336 141 q 402 141 428 187 q 453 233 453 357 l 450 420 q 441 498 422 531 q 404 564 363 575 q 344 580 323 580 q 302 580 288 574 q 245 555 245 501 l 245 203 q 245 164 262 152 q 280 141 336 141 z"},"^":{"x_min":0,"x_max":537,"ha":537,"o":"m 34 155 l 268 576 l 503 155 l 360 155 l 268 335 l 177 155 z"},"0":{"x_min":0,"x_max":621,"ha":621,"o":"m 29 382 q 29 538 80 620 q 127 696 224 715 q 282 726 328 726 q 461 726 526 640 q 592 553 592 373 l 592 353 l 589 267 q 589 126 520 54 q 450 -17 318 -17 q 167 -17 101 58 q 30 139 30 333 z m 253 144 q 274 111 313 111 q 331 111 344 121 q 375 144 393 231 q 407 299 407 355 q 407 414 394 476 q 376 561 344 585 q 331 595 313 595 q 276 595 253 562 q 235 537 225 470 q 215 403 215 355 q 215 315 229 237 q 243 159 253 144 z"},"F":{"x_min":0,"x_max":549,"ha":549,"o":"m 7 0 l 11 86 l 23 87 q 39 90 49 98 q 59 106 62 116 l 63 150 l 65 549 q 65 596 58 611 q 50 626 23 632 l 7 634 l 11 720 l 532 720 q 532 672 536 628 q 541 583 549 521 l 428 524 l 425 538 q 408 584 364 593 l 349 594 l 299 594 q 280 594 260 575 q 246 559 246 536 l 246 527 l 245 508 l 245 427 l 495 427 l 486 290 l 245 290 l 245 150 q 245 113 255 100 q 265 88 297 88 l 317 86 l 313 0 z"},"`":{"x_min":0,"x_max":298,"ha":298,"o":"m -59 779 l 167 779 l 187 741 q 228 665 271 594 l 150 594 l 103 636 l 55 679 l -2 729 z"},"k":{"x_min":0,"x_max":601,"ha":601,"o":"m 7 0 l 11 86 l 19 87 q 46 92 56 110 q 65 127 65 172 l 68 617 l 67 631 q 63 666 54 676 q 46 687 22 687 l 8 688 l 11 756 l 114 775 l 230 775 l 225 745 l 226 705 l 226 306 l 313 394 l 333 415 q 341 425 341 431 q 341 442 326 448 q 312 454 302 452 l 313 538 l 587 538 l 587 452 q 568 452 550 438 l 533 419 l 400 289 l 551 117 q 572 92 601 86 l 597 0 l 423 0 q 419 16 407 37 l 405 39 l 384 63 l 225 242 l 226 158 l 227 131 l 227 127 q 229 112 238 104 q 248 95 272 90 l 278 89 l 274 0 z"},"u":{"x_min":0,"x_max":627,"ha":627,"o":"m 7 452 l 11 520 l 117 538 l 236 538 q 225 451 225 344 l 225 236 l 225 219 q 225 193 235 182 q 245 171 271 171 q 277 171 283 171 q 292 173 304 174 q 317 175 337 188 q 357 202 386 234 l 407 258 l 407 393 l 407 406 q 405 432 395 442 q 385 452 363 452 l 350 452 l 345 452 l 342 520 l 446 538 l 572 538 l 567 467 l 568 407 l 568 166 q 568 124 576 108 q 584 93 610 88 l 618 87 l 623 86 l 619 0 l 422 0 q 418 16 416 38 q 414 59 414 80 q 414 101 417 124 l 379 82 l 371 74 l 348 51 q 285 -9 219 -9 q 204 -9 195 -8 q 186 -7 168 -2 q 107 14 86 52 q 64 90 64 186 l 64 372 l 64 381 l 63 413 q 63 436 54 444 q 44 453 17 453 z"},"]":{"x_min":0,"x_max":360,"ha":360,"o":"m 7 -163 l 7 -87 l 123 -87 l 123 703 l 9 703 l 9 777 l 295 777 l 295 -163 z"},"U":{"x_min":0,"x_max":705,"ha":705,"o":"m 7 634 l 11 720 l 302 720 l 299 634 l 292 632 l 280 629 q 260 624 252 610 q 245 597 245 565 l 245 261 l 247 230 q 254 172 280 146 q 306 120 353 120 q 399 120 425 146 q 451 172 458 230 l 460 261 l 460 565 q 460 602 451 614 q 442 626 412 632 l 403 634 l 407 720 l 698 720 l 695 634 l 686 633 q 656 628 648 619 q 641 610 641 571 l 640 557 l 640 293 q 640 229 631 189 q 622 149 602 115 q 562 50 504 22 q 447 -7 353 -7 q 259 -7 202 21 q 144 49 104 115 q 84 147 74 189 q 65 231 65 293 l 65 557 l 65 571 q 61 612 54 620 q 48 629 17 633 z"},"o":{"x_min":0,"x_max":612,"ha":612,"o":"m 27 276 q 27 410 98 482 q 170 555 302 555 q 424 555 496 493 q 568 431 579 319 q 581 305 581 292 q 581 280 581 268 q 581 132 508 59 q 435 -14 302 -14 q 168 -14 98 60 q 27 133 27 276 z m 210 260 q 210 186 234 153 q 258 120 306 120 q 353 120 378 153 q 402 186 402 260 l 400 315 q 400 365 374 392 q 349 420 308 420 q 265 420 238 393 q 212 366 212 315 z"},"N":{"x_min":0,"x_max":709,"ha":709,"o":"m 7 0 l 11 86 l 22 88 q 47 93 56 108 q 64 124 64 165 l 64 573 q 64 605 56 616 q 49 628 26 631 l 13 633 l 7 634 l 11 720 l 264 720 q 268 707 270 700 q 273 692 278 682 l 303 638 l 448 341 l 480 275 q 483 270 490 252 q 502 223 506 212 l 495 278 q 489 327 486 368 q 483 410 483 432 l 483 553 l 481 568 q 476 598 460 615 q 444 632 421 634 l 425 720 l 702 720 l 698 634 l 689 632 q 663 627 656 619 q 648 611 646 584 l 645 568 l 645 95 l 645 47 l 645 28 l 646 25 q 646 14 652 0 l 463 0 l 240 411 l 226 445 l 221 454 l 212 475 l 215 451 l 219 426 l 225 368 l 225 187 l 225 170 q 225 126 238 108 q 252 90 283 87 l 295 86 l 291 0 z"},"G":{"x_min":0,"x_max":679,"ha":679,"o":"m 606 722 l 609 681 q 609 638 614 595 q 616 581 627 509 l 501 510 l 498 521 q 483 569 457 584 q 431 598 367 598 q 307 598 273 556 q 239 515 228 427 l 225 377 q 225 309 236 256 q 248 204 268 173 q 289 142 319 130 q 358 114 386 114 q 428 114 450 152 q 454 160 456 170 q 459 180 459 194 q 459 268 415 276 q 405 278 400 277 l 403 364 l 679 364 l 675 277 q 648 277 632 254 q 616 231 616 181 l 616 108 l 616 56 q 616 48 617 29 q 618 10 618 1 l 568 2 l 474 -7 l 448 -9 q 228 -9 132 74 q 29 163 29 378 q 29 490 72 568 q 114 646 199 694 q 240 717 294 726 q 347 735 435 735 q 460 735 490 731 q 519 727 536 724 q 554 722 606 722 z"},"q":{"x_min":0,"x_max":619,"ha":619,"o":"m 446 485 l 474 515 l 499 538 l 570 538 q 567 523 565 510 q 563 497 563 481 l 563 448 l 563 -88 l 564 -101 q 564 -133 572 -145 q 580 -157 602 -157 l 615 -157 l 619 -157 l 616 -243 q 560 -243 505 -243 q 450 -243 395 -244 q 399 -200 401 -152 q 403 -104 403 -35 l 403 78 q 354 12 270 -3 q 258 -6 244 -7 q 231 -8 216 -8 q 138 -8 90 42 q 43 93 32 190 q 29 216 29 240 q 29 251 30 262 q 30 272 34 303 q 52 411 122 476 q 191 540 283 540 q 340 540 396 513 q 419 502 421 501 q 429 496 446 485 z m 400 301 q 400 352 376 380 q 353 409 313 409 q 296 409 276 402 q 256 396 238 376 q 220 357 205 321 q 196 302 193 269 l 192 246 q 192 138 277 138 q 305 138 337 151 q 390 173 401 221 l 401 286 z"},"d":{"x_min":0,"x_max":630,"ha":630,"o":"m 406 504 l 406 599 q 406 643 394 660 q 382 677 346 686 l 331 688 l 335 756 l 443 775 l 572 775 q 568 735 568 687 q 568 677 568 672 l 568 128 q 568 112 577 104 q 586 96 612 89 l 623 86 l 619 0 l 422 0 q 407 33 407 72 l 409 101 l 386 71 q 343 23 306 5 q 269 -13 220 -13 q 146 -13 97 41 q 48 95 33 200 q 31 212 30 228 q 29 245 29 259 q 29 272 29 285 q 31 296 31 300 q 42 403 93 466 q 144 529 223 545 q 254 552 282 552 q 338 552 393 514 z m 385 353 q 379 366 367 378 q 338 407 302 407 q 247 407 218 347 q 211 333 208 314 q 206 296 206 269 q 206 246 208 226 q 210 207 212 201 q 225 151 272 151 q 292 151 311 161 q 323 167 358 204 q 392 240 401 257 l 401 301 q 401 312 398 323 q 394 334 385 353 z"},"1":{"x_min":0,"x_max":621,"ha":621,"o":"m 51 600 l 69 607 l 115 624 q 181 650 218 672 q 256 693 291 725 l 418 725 q 407 695 407 666 l 408 631 l 408 0 l 228 0 l 228 554 l 200 535 l 172 517 l 139 495 l 106 474 z"},"5":{"x_min":0,"x_max":622,"ha":622,"o":"m 23 89 l 106 208 l 131 190 q 141 182 157 172 q 173 163 181 159 q 234 131 272 131 q 307 131 337 155 q 361 174 372 196 q 382 218 382 245 q 382 285 353 311 q 324 337 291 337 q 262 337 238 318 q 214 298 199 260 l 195 248 l 71 341 q 86 376 92 403 q 97 430 97 491 l 106 720 l 531 720 q 531 673 536 627 q 540 581 548 521 l 409 521 l 407 530 q 397 564 386 573 q 375 582 343 582 l 265 582 l 266 546 q 266 499 253 447 q 295 460 330 460 q 394 460 429 448 q 464 436 499 402 q 534 368 550 334 q 565 300 565 253 q 565 172 535 117 q 505 62 432 21 q 367 -16 280 -16 q 262 -16 244 -16 q 228 -13 221 -12 q 132 0 45 70 z"}}}
